<!DOCTYPE svg PUBLIC "-//W3C//DTD SVG 1.1//EN" "http://www.w3.org/Graphics/SVG/1.1/DTD/svg11.dtd">
<!-- Uploaded to: SVG Repo, www.svgrepo.com, Transformed by: SVG Repo Mixer Tools -->
<svg width="800px" height="800px" viewBox="0 0 64 64" xmlns="http://www.w3.org/2000/svg" fill="#000000">
<g id="SVGRepo_bgCarrier" stroke-width="0"/>
<g id="SVGRepo_tracerCarrier" stroke-linecap="round" stroke-linejoin="round"/>
<g id="SVGRepo_iconCarrier"> <defs> <style>.cls-1{fill:none;stroke:#000000;stroke-linejoin:round;stroke-width:2px;}</style> </defs> <title/> <g data-name="Layer 21" id="Layer_21"> <path class="cls-1" d="M30,16H12l-2,2v3L8,23v8A13,13,0,0,0,21,44h0A13,13,0,0,0,34,31V23l-2-2V18Z"/> <path class="cls-1" d="M8,26H8a4,4,0,0,0-4,4H4a4,4,0,0,0,4,4H8"/> <path class="cls-1" d="M18,39h0a3,3,0,0,1,3-3h0a3,3,0,0,1,3,3h0"/> <circle class="cls-1" cx="16" cy="25" r="2"/> <circle class="cls-1" cx="26" cy="25" r="2"/> <path class="cls-1" d="M34,26a4,4,0,0,1,4,4h0a4,4,0,0,1-4,4h0"/> <path class="cls-1" d="M8,26,4,19V18A10,10,0,0,1,14,8H28A10,10,0,0,1,38,18h0l-4,8h0"/> <polyline class="cls-1" points="16 43 16 48 21 51 26 48 26 43"/> <path class="cls-1" d="M26,48h7.17A6.84,6.84,0,0,1,38,50h0a6.84,6.84,0,0,1,2,4.83V62H2V54.83A6.84,6.84,0,0,1,4,50H4a6.84,6.84,0,0,1,4.83-2H16"/> <path class="cls-1" d="M38,16.47A6,6,0,0,0,42,18H56A6,6,0,0,0,56,6a6.16,6.16,0,0,0-1.3.14,6,6,0,0,0-11.4,0A6.16,6.16,0,0,0,42,6a6,6,0,0,0-6,6"/> <line class="cls-1" x1="46" x2="46" y1="23" y2="39"/> <line class="cls-1" x1="54" x2="54" y1="23" y2="39"/> <line class="cls-1" x1="50" x2="50" y1="37" y2="27"/> <line class="cls-1" x1="50" x2="50" y1="21" y2="25"/> <path class="cls-1" d="M40,62H60a2,2,0,0,0,2-2h0a2,2,0,0,0-2-2H52a2,2,0,0,1-2-2h0a2,2,0,0,1,2-2h2a2,2,0,0,0,2-2h0a2,2,0,0,0-2-2H38"/> </g> </g>
</svg>